<?xml version="1.0"?>
<svg version="1.1" xmlns="http://www.w3.org/2000/svg" width="400" height="200" style="border: dashed 2px #aaa"><path fill="#3da2eb" d="M71.8,89.6l-7.6,0l-21.3,52.9l-20.1-52.9l-6.3,0l26.4,70.4z M85.084,160.1l6.3,0l0-70.3l-6.3,0l0,70.3z M153.268,124.3q3.9-1.9,6.4-6.3q2.5-4.2,2.5-9q0-8.6-5.8-13.9q-5.8-5.2-14.6-5.2l-28.1,0l-1.2,0l-5.1,0l0,70.1l5.1,0l1.2,0l28.1,0q8.8,0,14.6-5.2q5.8-5.3,5.8-13.9q0-4.7-2.45-9.15t-6.45-7.45z M113.668,95l28.1,0q6,0,9.9,4.1q4.2,4.4,4.2,9.9q0,4.5-3.3,8.3q-3.1,3.4-8.2,4.5l-2.6,0l-28.1,0l0-26.8z M141.768,154.9l-28.1,0l0-26.8l28.1,0l2.6,0q5.1,1.1,8.2,4.5q3.3,3.8,3.3,8.3q0,5.4-4.2,9.8q-4,4.2-9.9,4.2z M183.152,140.8q0-4.8,3.4-8.7q3.4-4.1,8.2-4.1l1.3,0l18.7,0l0-6.2l-18.7,0l-1.3,0q-5.1-1-8.35-4.4t-3.25-8.1q0-5.9,3.45-9.35t9.45-3.45l34,0l0-6.3l-34,0q-7.7,0-13.4,5.7q-5.7,5.5-5.7,13.4q0,5,1.9,9.1t5.6,5.9q-3.7,2.7-5.6,7.1t-1.9,9.4q0,7.8,5.7,13.3q5.8,5.8,13.4,5.8l34,0l0-6.6l-34,0q-6,0-9.45-3.4t-3.45-9.1z M285.936,96.1l-45.1,64l56.4,0l0-5l-45.1,0l45.1-65.2l-55.2,0l0,6.2l43.9,0z"/><path fill="#" d=""/></svg>
